<svg xmlns="http://www.w3.org/2000/svg" xmlns:xlink="http://www.w3.org/1999/xlink" width="1584" zoomAndPan="magnify" viewBox="0 0 1188 296.999993" height="396" preserveAspectRatio="xMidYMid meet" version="1.0"><defs><g/><clipPath id="6bf699f992"><path d="M 0 187 L 275.234375 187 L 275.234375 292.925781 L 0 292.925781 Z M 0 187 " clip-rule="nonzero"/></clipPath><clipPath id="1914c3562c"><path d="M 0 4.8125 L 275.234375 4.8125 L 275.234375 111 L 0 111 Z M 0 4.8125 " clip-rule="nonzero"/></clipPath></defs><path fill="#023efd" d="M 68.039062 79.332031 L 260.109375 79.332031 L 245.285156 105.089844 L 68.039062 105.089844 Z M 68.039062 79.332031 " fill-opacity="1" fill-rule="evenodd"/><path fill="#023efd" d="M 0.0117188 136.003906 L 220.1875 136.003906 L 220.1875 161.761719 L 0.0117188 161.761719 Z M 0.0117188 136.003906 " fill-opacity="1" fill-rule="evenodd"/><path fill="#023efd" d="M 68.03125 79.332031 L 93.707031 79.332031 L 93.707031 218.433594 L 68.03125 218.433594 Z M 68.03125 79.332031 " fill-opacity="1" fill-rule="evenodd"/><path fill="#023efd" d="M 68.039062 218.433594 L 260.109375 218.433594 L 245.285156 192.671875 L 68.039062 192.671875 Z M 68.039062 218.433594 " fill-opacity="1" fill-rule="evenodd"/><g clip-path="url(#6bf699f992)"><path fill="#023efd" d="M 275.242188 192.671875 C 256.765625 250.824219 202.484375 292.949219 138.398438 292.949219 C 72.421875 292.949219 16.847656 248.316406 0.0117188 187.519531 L 29.382812 187.519531 C 45.246094 232.5625 88.058594 264.839844 138.394531 264.839844 C 186.785156 264.839844 228.222656 235.003906 245.453125 192.671875 Z M 275.242188 192.671875 " fill-opacity="1" fill-rule="evenodd"/></g><g clip-path="url(#1914c3562c)"><path fill="#023efd" d="M 138.394531 4.8125 C 202.484375 4.8125 256.765625 46.941406 275.234375 105.089844 L 245.453125 105.089844 C 228.230469 62.757812 186.785156 32.925781 138.394531 32.925781 C 88.066406 32.925781 45.246094 65.199219 29.382812 110.242188 L 0.0117188 110.242188 C 16.847656 49.441406 72.429688 4.8125 138.394531 4.8125 Z M 138.394531 4.8125 " fill-opacity="1" fill-rule="evenodd"/></g><g fill="#023efd" fill-opacity="1"><g transform="translate(232.631355, 171.623772)"><g><path d="M 59.578125 0 L 40.078125 0 L 29.78125 -13.203125 L 19.5 0 L 0 0 L 19.953125 -24.40625 L 2.828125 -46.734375 L 21.6875 -46.734375 L 29.78125 -35.890625 L 37.890625 -46.734375 L 56.75 -46.734375 L 39.625 -24.40625 Z M 59.578125 0 "/></g></g></g><g fill="#023efd" fill-opacity="1"><g transform="translate(292.199354, 171.623772)"><g><path d="M 53.5625 -40.9375 C 57.9375 -36.175781 60.125 -30.332031 60.125 -23.40625 C 60.125 -16.488281 57.9375 -10.628906 53.5625 -5.828125 C 49.1875 -1.035156 43.628906 1.359375 36.890625 1.359375 C 30.691406 1.359375 25.59375 -0.582031 21.59375 -4.46875 L 21.59375 23.6875 L 5.46875 23.6875 L 5.46875 -46.734375 L 21.40625 -46.734375 L 21.40625 -41.453125 L 21.59375 -41.453125 C 25.59375 -45.878906 30.691406 -48.09375 36.890625 -48.09375 C 43.628906 -48.09375 49.1875 -45.707031 53.5625 -40.9375 Z M 39.84375 -15.484375 C 41.945312 -17.546875 43 -20.1875 43 -23.40625 C 43 -26.625 41.992188 -29.25 39.984375 -31.28125 C 37.984375 -33.320312 35.34375 -34.34375 32.0625 -34.34375 C 28.90625 -34.34375 26.304688 -33.304688 24.265625 -31.234375 C 22.234375 -29.171875 21.21875 -26.5625 21.21875 -23.40625 C 21.21875 -20.1875 22.265625 -17.546875 24.359375 -15.484375 C 26.460938 -13.421875 29.03125 -12.390625 32.0625 -12.390625 C 35.15625 -12.390625 37.75 -13.421875 39.84375 -15.484375 Z M 39.84375 -15.484375 "/></g></g></g><g fill="#023efd" fill-opacity="1"><g transform="translate(354.408749, 171.623772)"><g><path d="M 52.75 -21.140625 L 18.859375 -21.140625 C 18.859375 -17.859375 19.921875 -15.425781 22.046875 -13.84375 C 24.171875 -12.269531 26.476562 -11.484375 28.96875 -11.484375 C 31.582031 -11.484375 33.644531 -11.832031 35.15625 -12.53125 C 36.675781 -13.226562 38.410156 -14.609375 40.359375 -16.671875 L 52.015625 -10.84375 C 47.160156 -2.707031 39.082031 1.359375 27.78125 1.359375 C 20.738281 1.359375 14.695312 -1.050781 9.65625 -5.875 C 4.613281 -10.707031 2.09375 -16.519531 2.09375 -23.3125 C 2.09375 -30.113281 4.613281 -35.941406 9.65625 -40.796875 C 14.695312 -45.660156 20.738281 -48.09375 27.78125 -48.09375 C 35.1875 -48.09375 41.210938 -45.953125 45.859375 -41.671875 C 50.503906 -37.390625 52.828125 -31.269531 52.828125 -23.3125 C 52.828125 -22.226562 52.800781 -21.503906 52.75 -21.140625 Z M 19.3125 -30.0625 L 37.078125 -30.0625 C 36.710938 -32.488281 35.753906 -34.351562 34.203125 -35.65625 C 32.660156 -36.96875 30.671875 -37.625 28.234375 -37.625 C 25.566406 -37.625 23.441406 -36.925781 21.859375 -35.53125 C 20.285156 -34.132812 19.4375 -32.3125 19.3125 -30.0625 Z M 19.3125 -30.0625 "/></g></g></g><g fill="#023efd" fill-opacity="1"><g transform="translate(409.331534, 171.623772)"><g><path d="M 5.46875 0 L 5.46875 -46.734375 L 21.59375 -46.734375 L 21.59375 -39.984375 L 21.765625 -39.984375 C 21.890625 -40.234375 22.085938 -40.539062 22.359375 -40.90625 C 22.640625 -41.269531 23.234375 -41.90625 24.140625 -42.8125 C 25.046875 -43.726562 26.015625 -44.546875 27.046875 -45.265625 C 28.085938 -45.992188 29.425781 -46.644531 31.0625 -47.21875 C 32.695312 -47.800781 34.367188 -48.09375 36.078125 -48.09375 C 37.835938 -48.09375 39.566406 -47.847656 41.265625 -47.359375 C 42.960938 -46.878906 44.207031 -46.394531 45 -45.90625 L 46.28125 -45.1875 L 39.53125 -31.515625 C 37.53125 -33.210938 34.738281 -34.0625 31.15625 -34.0625 C 29.207031 -34.0625 27.535156 -33.632812 26.140625 -32.78125 C 24.742188 -31.9375 23.753906 -30.90625 23.171875 -29.6875 C 22.597656 -28.476562 22.191406 -27.445312 21.953125 -26.59375 C 21.710938 -25.75 21.59375 -25.082031 21.59375 -24.59375 L 21.59375 0 Z M 5.46875 0 "/></g></g></g><g fill="#023efd" fill-opacity="1"><g transform="translate(454.690632, 171.623772)"><g><path d="M 8.203125 -46.734375 L 8.203125 -64.125 L 24.328125 -64.125 L 24.328125 -46.734375 L 34.15625 -46.734375 L 34.15625 -34.4375 L 24.328125 -34.4375 L 24.328125 -19.578125 C 24.328125 -15.273438 25.539062 -13.125 27.96875 -13.125 C 28.570312 -13.125 29.207031 -13.242188 29.875 -13.484375 C 30.539062 -13.722656 31.054688 -13.960938 31.421875 -14.203125 L 31.96875 -14.578125 L 35.984375 -1.546875 C 32.523438 0.390625 28.578125 1.359375 24.140625 1.359375 C 21.097656 1.359375 18.484375 0.828125 16.296875 -0.234375 C 14.117188 -1.296875 12.46875 -2.722656 11.34375 -4.515625 C 10.21875 -6.304688 9.410156 -8.1875 8.921875 -10.15625 C 8.441406 -12.132812 8.203125 -14.242188 8.203125 -16.484375 L 8.203125 -34.4375 L 1.453125 -34.4375 L 1.453125 -46.734375 Z M 8.203125 -46.734375 "/></g></g></g><g fill="#023efd" fill-opacity="1"><g transform="translate(490.668237, 171.623772)"><g><path d="M 9.875 -5.5625 C 4.6875 -10.175781 2.09375 -16.09375 2.09375 -23.3125 C 2.09375 -30.539062 4.796875 -36.476562 10.203125 -41.125 C 15.609375 -45.769531 22.289062 -48.09375 30.25 -48.09375 C 38.082031 -48.09375 44.6875 -45.753906 50.0625 -41.078125 C 55.4375 -36.398438 58.125 -30.476562 58.125 -23.3125 C 58.125 -16.15625 55.492188 -10.253906 50.234375 -5.609375 C 44.984375 -0.960938 38.320312 1.359375 30.25 1.359375 C 21.863281 1.359375 15.070312 -0.945312 9.875 -5.5625 Z M 22.359375 -31.234375 C 20.265625 -29.171875 19.21875 -26.53125 19.21875 -23.3125 C 19.21875 -20.09375 20.21875 -17.46875 22.21875 -15.4375 C 24.226562 -13.40625 26.875 -12.390625 30.15625 -12.390625 C 33.3125 -12.390625 35.90625 -13.421875 37.9375 -15.484375 C 39.976562 -17.546875 41 -20.15625 41 -23.3125 C 41 -26.53125 39.945312 -29.171875 37.84375 -31.234375 C 35.75 -33.304688 33.1875 -34.34375 30.15625 -34.34375 C 27.050781 -34.34375 24.453125 -33.304688 22.359375 -31.234375 Z M 22.359375 -31.234375 "/></g></g></g><g fill="#023efd" fill-opacity="1"><g transform="translate(550.873787, 171.623772)"><g><path d="M 53.5625 -40.9375 C 57.9375 -36.175781 60.125 -30.332031 60.125 -23.40625 C 60.125 -16.488281 57.9375 -10.628906 53.5625 -5.828125 C 49.1875 -1.035156 43.628906 1.359375 36.890625 1.359375 C 30.691406 1.359375 25.59375 -0.582031 21.59375 -4.46875 L 21.59375 23.6875 L 5.46875 23.6875 L 5.46875 -46.734375 L 21.40625 -46.734375 L 21.40625 -41.453125 L 21.59375 -41.453125 C 25.59375 -45.878906 30.691406 -48.09375 36.890625 -48.09375 C 43.628906 -48.09375 49.1875 -45.707031 53.5625 -40.9375 Z M 39.84375 -15.484375 C 41.945312 -17.546875 43 -20.1875 43 -23.40625 C 43 -26.625 41.992188 -29.25 39.984375 -31.28125 C 37.984375 -33.320312 35.34375 -34.34375 32.0625 -34.34375 C 28.90625 -34.34375 26.304688 -33.304688 24.265625 -31.234375 C 22.234375 -29.171875 21.21875 -26.5625 21.21875 -23.40625 C 21.21875 -20.1875 22.265625 -17.546875 24.359375 -15.484375 C 26.460938 -13.421875 29.03125 -12.390625 32.0625 -12.390625 C 35.15625 -12.390625 37.75 -13.421875 39.84375 -15.484375 Z M 39.84375 -15.484375 "/></g></g></g><g fill="#023efd" fill-opacity="1"><g transform="translate(613.083183, 171.623772)"><g><path d="M 5.46875 0 L 5.46875 -78.34375 L 21.59375 -78.34375 L 21.59375 0 Z M 5.46875 0 "/></g></g></g><g fill="#023efd" fill-opacity="1"><g transform="translate(640.134686, 171.623772)"><g><path d="M 20.671875 -46.734375 L 20.671875 -24.5 C 20.671875 -19.882812 21.367188 -16.601562 22.765625 -14.65625 C 24.171875 -12.71875 26.539062 -11.75 29.875 -11.75 C 33.21875 -11.75 35.585938 -12.71875 36.984375 -14.65625 C 38.378906 -16.601562 39.078125 -19.882812 39.078125 -24.5 L 39.078125 -46.734375 L 55.203125 -46.734375 L 55.203125 -20.59375 C 55.203125 -12.8125 53.179688 -7.207031 49.140625 -3.78125 C 45.109375 -0.351562 38.6875 1.359375 29.875 1.359375 C 21.070312 1.359375 14.648438 -0.351562 10.609375 -3.78125 C 6.578125 -7.207031 4.5625 -12.8125 4.5625 -20.59375 L 4.5625 -46.734375 Z M 20.671875 -46.734375 "/></g></g></g><g fill="#023efd" fill-opacity="1"><g transform="translate(699.884847, 171.623772)"><g><path d="M 25.78125 -48.09375 C 28.445312 -48.09375 31.085938 -47.789062 33.703125 -47.1875 C 36.316406 -46.582031 38.257812 -45.972656 39.53125 -45.359375 L 41.453125 -44.453125 L 36.171875 -33.890625 C 32.523438 -35.828125 29.0625 -36.796875 25.78125 -36.796875 C 23.957031 -36.796875 22.664062 -36.597656 21.90625 -36.203125 C 21.144531 -35.816406 20.765625 -35.078125 20.765625 -33.984375 C 20.765625 -33.734375 20.796875 -33.488281 20.859375 -33.25 C 20.921875 -33.007812 21.039062 -32.78125 21.21875 -32.5625 C 21.40625 -32.351562 21.570312 -32.171875 21.71875 -32.015625 C 21.875 -31.867188 22.132812 -31.703125 22.5 -31.515625 C 22.863281 -31.335938 23.148438 -31.203125 23.359375 -31.109375 C 23.578125 -31.015625 23.925781 -30.875 24.40625 -30.6875 C 24.894531 -30.507812 25.257812 -30.375 25.5 -30.28125 C 25.75 -30.195312 26.160156 -30.0625 26.734375 -29.875 C 27.304688 -29.695312 27.75 -29.578125 28.0625 -29.515625 C 29.9375 -28.960938 31.570312 -28.351562 32.96875 -27.6875 C 34.375 -27.019531 35.847656 -26.109375 37.390625 -24.953125 C 38.941406 -23.804688 40.140625 -22.351562 40.984375 -20.59375 C 41.835938 -18.832031 42.265625 -16.828125 42.265625 -14.578125 C 42.265625 -3.953125 34.882812 1.359375 20.125 1.359375 C 16.789062 1.359375 13.617188 0.84375 10.609375 -0.1875 C 7.609375 -1.21875 5.4375 -2.25 4.09375 -3.28125 L 2.09375 -4.921875 L 8.65625 -15.9375 C 9.132812 -15.507812 9.769531 -15.007812 10.5625 -14.4375 C 11.351562 -13.863281 12.78125 -13.070312 14.84375 -12.0625 C 16.914062 -11.0625 18.707031 -10.5625 20.21875 -10.5625 C 23.5625 -10.5625 25.234375 -11.6875 25.234375 -13.9375 C 25.234375 -14.96875 24.804688 -15.769531 23.953125 -16.34375 C 23.109375 -16.925781 21.664062 -17.582031 19.625 -18.3125 C 17.59375 -19.039062 16 -19.707031 14.84375 -20.3125 C 11.925781 -21.832031 9.617188 -23.546875 7.921875 -25.453125 C 6.222656 -27.367188 5.375 -29.90625 5.375 -33.0625 C 5.375 -37.800781 7.207031 -41.488281 10.875 -44.125 C 14.550781 -46.769531 19.519531 -48.09375 25.78125 -48.09375 Z M 25.78125 -48.09375 "/></g></g></g></svg>