<?xml version="1.0" encoding="utf-8"?>
<!-- Generator: Adobe Illustrator 26.5.0, SVG Export Plug-In . SVG Version: 6.00 Build 0)  -->
<svg version="1.1" id="Capa_1" xmlns="http://www.w3.org/2000/svg" xmlns:xlink="http://www.w3.org/1999/xlink" x="0px" y="0px"
	 viewBox="0 0 14 14" style="enable-background:new 0 0 14 14;" xml:space="preserve">
<style type="text/css">
	.st0{clip-path:url(#SVGID_00000013913540389957037940000005686139845698074510_);}
	.st1{fill:#FFFFFF;}
	.st2{fill:none;stroke:#000000;stroke-miterlimit:10;}
</style>
<g>
	<defs>
		<rect id="SVGID_1_" width="14" height="14"/>
	</defs>
	<clipPath id="SVGID_00000041262459393608146660000009017995313734729658_">
		<use xlink:href="#SVGID_1_"  style="overflow:visible;"/>
	</clipPath>
	<g style="clip-path:url(#SVGID_00000041262459393608146660000009017995313734729658_);">
		<path class="st1" d="M3.5,9.6h9c0.1,0,0.3,0,0.4,0.1c0.1,0.1,0.2,0.1,0.3,0.2c0.1,0.1,0.2,0.2,0.2,0.3c0.1,0.1,0.1,0.3,0.1,0.4V11
			c0,0.1,0,0.3-0.1,0.4c-0.1,0.1-0.1,0.2-0.2,0.3c-0.1,0.1-0.2,0.2-0.3,0.2C12.8,12,12.6,12,12.5,12h-9c-0.3,0-0.5-0.1-0.7-0.3
			c-0.2-0.2-0.3-0.5-0.3-0.7v-0.4c0-0.3,0.1-0.5,0.3-0.7C3,9.7,3.3,9.6,3.5,9.6z"/>
		<path class="st1" d="M2.3,5.4h10.3c0.2,0,0.4,0.1,0.6,0.3c0.2,0.2,0.3,0.4,0.3,0.7v0.4c0,0.3-0.1,0.5-0.3,0.7
			c-0.2,0.2-0.4,0.3-0.6,0.3H2.3c-0.2,0-0.5-0.1-0.6-0.3C1.6,7.3,1.5,7.1,1.5,6.8V6.4c0-0.3,0.1-0.5,0.3-0.7
			C1.9,5.5,2.1,5.4,2.3,5.4z"/>
		<path class="st1" d="M6.8,1.5h5.5c0.3,0,0.5,0.1,0.7,0.3c0.2,0.2,0.3,0.5,0.3,0.7v0.4c0,0.3-0.1,0.5-0.3,0.7
			c-0.2,0.2-0.4,0.3-0.7,0.3H6.8c-0.3,0-0.5-0.1-0.7-0.3C5.9,3.4,5.8,3.2,5.8,2.9V2.5c0-0.1,0-0.3,0.1-0.4C5.9,2,6,1.9,6.1,1.8
			c0.1-0.1,0.2-0.2,0.3-0.2C6.6,1.5,6.7,1.5,6.8,1.5z"/>
	</g>
</g>
<line class="st2" x1="-220" y1="133" x2="-149.3" y2="62.3"/>
</svg>
